# xmcd CD database file
#
# Track frame offsets:
#	150
#	11515
#	27060
#	45095
#	64290
#	75892
#	92035
#	109702
#	127820
#	141112
#	157880
#	175432
#	191020
#	206290
#	220655
#	243512
#	260142
#
# Disc length: 3545 seconds
#
# Revision: 1
# Processed by: cddbd v1.5.1PL0 Copyright (c) Steve Scherf et al.
# Submitted via: CDex 1.51
#
DISCID=d60dd711
DTITLE=Rita Reys - The Rita Reys Story - Songs of a lifetime - CD3 - 1969-1979
DYEAR=2004
DGENRE=Jazz
TTITLE0=Watch What Happens 
TTITLE1=Moonlight In Vermont 
TTITLE2=Make It Easy On Yourself 
TTITLE3=Too Marvellous For Words 
TTITLE4=What The World Needs Now Is Love 
TTITLE5=Someone To Watch Over Me 
TTITLE6=Lover Man 
TTITLE7=Soon It's Gonna Rain 
TTITLE8=A House Is Not A Home 
TTITLE9=Where Or When 
TTITLE10=Once Upon A Summertime 
TTITLE11=Here's That Rainy Day 
TTITLE12=More Than You Know 
TTITLE13=One Less Bell To Answer 
TTITLE14=My Foolish Heart 
TTITLE15=What Are You Doing The Rest Of Your Life 
TTITLE16=I Can't Give You Anything But Love  
EXTD=YEAR: 2004
EXTT0=
EXTT1=
EXTT2=
EXTT3=
EXTT4=
EXTT5=
EXTT6=
EXTT7=
EXTT8=
EXTT9=
EXTT10=
EXTT11=
EXTT12=
EXTT13=
EXTT14=
EXTT15=
EXTT16=
PLAYORDER=
